<?xml version="1.0" standalone="no"?>
<!DOCTYPE svg PUBLIC "-//W3C//DTD SVG 20010904//EN"
 "http://www.w3.org/TR/2001/REC-SVG-20010904/DTD/svg10.dtd">
<svg version="1.0" xmlns="http://www.w3.org/2000/svg"
 width="1024.000000pt" height="1024.000000pt" viewBox="0 0 1024.000000 1024.000000"
 preserveAspectRatio="xMidYMid meet">

<g transform="translate(0.000000,1024.000000) scale(0.100000,-0.100000)"
fill="#000000" stroke="none">
<path d="M3780 8815 c-213 -49 -431 -158 -578 -290 -155 -140 -271 -363 -307
-590 -54 -344 -3 -621 163 -885 127 -200 211 -290 1130 -1205 492 -489 904
-894 915 -898 12 -4 31 -6 43 -3 12 3 228 214 480 468 253 255 648 652 880
883 239 239 455 463 501 521 203 256 289 426 345 679 19 89 16 349 -6 455 -57
272 -201 502 -415 663 -183 137 -379 202 -651 213 -215 10 -350 -21 -554 -123
-176 -88 -280 -175 -413 -345 -91 -116 -147 -212 -173 -296 -17 -56 -17 -56
-25 -27 -25 97 -88 199 -220 360 -180 219 -398 357 -650 411 -102 23 -382 28
-465 9z"/>
<path d="M3417 5470 c-343 -5 -501 -10 -509 -18 -17 -17 -16 -2219 1 -2362 68
-580 328 -1047 737 -1320 301 -201 640 -316 1084 -366 163 -18 565 -21 730 -4
1083 107 1711 656 1856 1621 16 101 18 241 21 1265 3 988 2 1152 -10 1163 -22
17 -1044 32 -1073 15 l-21 -12 -6 -1084 c-7 -1183 -9 -1216 -66 -1385 -66
-199 -185 -336 -383 -442 -357 -193 -925 -199 -1291 -15 -267 135 -404 327
-458 644 -7 44 -12 430 -16 1168 -5 1070 -5 1104 -24 1123 -11 11 -31 18 -46
17 -16 -1 -252 -5 -526 -8z"/>
</g>
</svg>
